<svg viewBox="0 0 640 616" xmlns="http://www.w3.org/2000/svg" role="img" font-family='ui-monospace, "SFMono-Regular", "SF Mono", Menlo, Consolas, monospace'>
<title>Measured side by side</title>
<desc>Scale-up 385 s on OKE and 77 s on GKE. Scale-down 312 s on OKE with timers set to 3 minutes and 752 s on GKE with the default delay. Script start to NIM Ready with autoscale 23 min 04 s on OKE and 16 min 07 s on GKE. Posted list cost for every start $1.17 on OKE and $1.19 on GKE.</desc>
<rect width="640" height="616" rx="6" fill="#0E1C2B"/>
<text x="28" y="42" font-size="17" fill="#E8E2D6" font-weight="600">Measured side by side</text>
<line x1="28" y1="58" x2="612" y2="58" stroke="#2D4152"/>
<text x="28" y="92" font-size="13" fill="#E8E2D6" font-weight="600">Scale-up: pod Pending to GPU node Ready</text>
<text x="28" y="121" font-size="11.5" fill="#A8A296">OKE, one A10</text>
<rect x="136.0" y="106" width="476.0" height="20" rx="2" fill="#1F3142"/>
<rect x="136.0" y="106" width="476.0" height="20" rx="2" fill="#6DA361"/>
<text x="136" y="141" font-size="11.5" fill="#E8E2D6">385 s</text>
<text x="28" y="163" font-size="11.5" fill="#A8A296">GKE, one L4</text>
<rect x="136.0" y="148" width="476.0" height="20" rx="2" fill="#1F3142"/>
<rect x="136.0" y="148" width="95.2" height="20" rx="2" fill="#17A1C8"/>
<text x="136" y="183" font-size="11.5" fill="#E8E2D6">77 s</text>
<text x="28" y="210" font-size="13" fill="#E8E2D6" font-weight="600">Scale-down: zero replicas to no GPU node</text>
<text x="28" y="239" font-size="11.5" fill="#A8A296">OKE, one A10</text>
<rect x="136.0" y="224" width="476.0" height="20" rx="2" fill="#1F3142"/>
<rect x="136.0" y="224" width="197.5" height="20" rx="2" fill="#6DA361"/>
<text x="136" y="259" font-size="11.5" fill="#E8E2D6">312 s, timers set to 3 min</text>
<text x="28" y="281" font-size="11.5" fill="#A8A296">GKE, one L4</text>
<rect x="136.0" y="266" width="476.0" height="20" rx="2" fill="#1F3142"/>
<rect x="136.0" y="266" width="476.0" height="20" rx="2" fill="#17A1C8"/>
<text x="136" y="301" font-size="11.5" fill="#E8E2D6">752 s, default delay</text>
<text x="28" y="328" font-size="13" fill="#E8E2D6" font-weight="600">Script start to NIM Ready, autoscale</text>
<text x="28" y="357" font-size="11.5" fill="#A8A296">OKE, one A10</text>
<rect x="136.0" y="342" width="476.0" height="20" rx="2" fill="#1F3142"/>
<rect x="136.0" y="342" width="476.0" height="20" rx="2" fill="#6DA361"/>
<text x="136" y="377" font-size="11.5" fill="#E8E2D6">23 min 04 s</text>
<text x="28" y="399" font-size="11.5" fill="#A8A296">GKE, one L4</text>
<rect x="136.0" y="384" width="476.0" height="20" rx="2" fill="#1F3142"/>
<rect x="136.0" y="384" width="332.6" height="20" rx="2" fill="#17A1C8"/>
<text x="136" y="419" font-size="11.5" fill="#E8E2D6">16 min 07 s</text>
<text x="28" y="446" font-size="13" fill="#E8E2D6" font-weight="600">Posted list cost, every start</text>
<text x="28" y="475" font-size="11.5" fill="#A8A296">OKE, one A10</text>
<rect x="136.0" y="460" width="476.0" height="20" rx="2" fill="#1F3142"/>
<rect x="136.0" y="460" width="468.0" height="20" rx="2" fill="#6DA361"/>
<text x="136" y="495" font-size="11.5" fill="#E8E2D6">$1.17</text>
<text x="28" y="517" font-size="11.5" fill="#A8A296">GKE, one L4</text>
<rect x="136.0" y="502" width="476.0" height="20" rx="2" fill="#1F3142"/>
<rect x="136.0" y="502" width="476.0" height="20" rx="2" fill="#17A1C8"/>
<text x="136" y="537" font-size="11.5" fill="#E8E2D6">$1.19</text>
<line x1="28" y1="556" x2="612" y2="556" stroke="#2D4152"/>
<text x="28" y="580" font-size="11.5" fill="#A8A296">One run each, on different hardware. This is a record of each run, not a benchmark</text>
<text x="28" y="598" font-size="11.5" fill="#A8A296">of the two platforms.</text>
</svg>
